<?xml version="1.0" encoding="UTF-8" standalone="no"?>
<!-- Created with Inkscape (http://www.inkscape.org/) -->

<svg
   xmlns:dc="http://purl.org/dc/elements/1.1/"
   xmlns:cc="http://creativecommons.org/ns#"
   xmlns:rdf="http://www.w3.org/1999/02/22-rdf-syntax-ns#"
   xmlns:svg="http://www.w3.org/2000/svg"
   xmlns="http://www.w3.org/2000/svg"
   xmlns:sodipodi="http://sodipodi.sourceforge.net/DTD/sodipodi-0.dtd"
   xmlns:inkscape="http://www.inkscape.org/namespaces/inkscape"
   version="1.1"
   id="svg64"
   width="180"
   height="180"
   viewBox="0 0 180 180"
   sodipodi:docname="bsi_logo_03.svg"
   inkscape:export-filename="/Users/fiori/dev/cloned_sites/bsi2018/00_bsi_assets_docs/bsi_logo03_crop.png"
   inkscape:export-xdpi="96"
   inkscape:export-ydpi="96"
   inkscape:version="0.92.2 5c3e80d, 2017-08-06">
  <metadata
     id="metadata70">
    <rdf:RDF>
      <cc:Work
         rdf:about="">
        <dc:format>image/svg+xml</dc:format>
        <dc:type
           rdf:resource="http://purl.org/dc/dcmitype/StillImage" />
        <dc:title></dc:title>
      </cc:Work>
    </rdf:RDF>
  </metadata>
  <defs
     id="defs68">
    <clipPath
       clipPathUnits="userSpaceOnUse"
       id="clipPath3769">
      <rect
         style="fill:none;fill-opacity:1;stroke:#434e15;stroke-width:1.82724071;stroke-miterlimit:4;stroke-dasharray:none;stroke-opacity:1"
         id="rect3771"
         width="179.94447"
         height="179.65678"
         x="207.19524"
         y="-0.40906939" />
    </clipPath>
    <mask
       maskUnits="userSpaceOnUse"
       id="mask872">
      <circle
         style="fill:#ffffff;fill-opacity:1;stroke:none;stroke-width:1.91639912;stroke-miterlimit:4;stroke-dasharray:none;stroke-opacity:1"
         id="circle874"
         cx="90.866806"
         cy="86.00708"
         r="75.91394" />
    </mask>
  </defs>
  <sodipodi:namedview
     pagecolor="#ffffff"
     bordercolor="#666666"
     borderopacity="1"
     objecttolerance="10"
     gridtolerance="10"
     guidetolerance="10"
     inkscape:pageopacity="0"
     inkscape:pageshadow="2"
     inkscape:window-width="1359"
     inkscape:window-height="1006"
     id="namedview66"
     showgrid="false"
     inkscape:zoom="2.3855926"
     inkscape:cx="103.63252"
     inkscape:cy="127.0699"
     inkscape:window-x="0"
     inkscape:window-y="0"
     inkscape:window-maximized="0"
     inkscape:current-layer="g859" />
  <ellipse
     style="fill:#2a3986;fill-opacity:1;stroke:#2a3986;stroke-width:2;stroke-miterlimit:4;stroke-dasharray:none;stroke-opacity:1"
     id="path17"
     cx="90.510223"
     cy="90.38562"
     rx="89.972237"
     ry="89.828392" />
  <g
     id="g859"
     mask="url(#mask872)">
    <circle
       r="75.91394"
       cy="86.00708"
       cx="90.866806"
       id="path824"
       style="fill:#c9cfea;fill-opacity:1;stroke:none;stroke-width:1.91639912;stroke-miterlimit:4;stroke-dasharray:none;stroke-opacity:1" />
    <path
       inkscape:connector-curvature="0"
       id="path828"
       d="M 67.907655,10.650045 125.33573,109.15806 4.0959153,133.79395 30.18118,28.255733 Z"
       style="fill:#fcfcfc;fill-opacity:1;stroke:#2a3986;stroke-width:2;stroke-linecap:butt;stroke-linejoin:miter;stroke-miterlimit:4;stroke-dasharray:none;stroke-opacity:1"
       sodipodi:nodetypes="ccccc" />
    <circle
       r="29.342813"
       cy="41.66959"
       cx="130.88103"
       id="path826"
       style="fill:#eee40a;fill-opacity:1;stroke:#233a89;stroke-width:2;stroke-miterlimit:4;stroke-dasharray:none;stroke-opacity:1" />
    <path
       style="fill:#fcfcfc;fill-opacity:1;stroke:#2a3986;stroke-width:2;stroke-linecap:butt;stroke-linejoin:miter;stroke-miterlimit:4;stroke-dasharray:none;stroke-opacity:1"
       d="M 51.978699,14.422693 109.40677,112.93071 4.0959153,133.79395 14.252224,32.028381 Z"
       id="path830"
       inkscape:connector-curvature="0"
       sodipodi:nodetypes="ccccc" />
    <path
       inkscape:connector-curvature="0"
       id="path832"
       d="M 32.18118,18.937791 89.609251,117.44581 4.0959153,133.79395 -5.545295,36.543479 Z"
       style="fill:#fcfcfc;fill-opacity:1;stroke:#2a3986;stroke-width:2;stroke-linecap:butt;stroke-linejoin:miter;stroke-miterlimit:4;stroke-dasharray:none;stroke-opacity:1"
       sodipodi:nodetypes="ccccc" />
    <path
       inkscape:connector-curvature="0"
       id="path838"
       d="m 60.074615,122.8952 c 0,0 49.044415,-14.25224 67.907645,-19.70162 18.86324,-5.44938 6.70694,18.02488 1.25755,46.11015 -5.44938,28.08526 -62.039083,-9.64121 -62.039083,-9.64121 z"
       style="fill:#eee40a;fill-opacity:1;stroke:#2a3986;stroke-width:2;stroke-linecap:butt;stroke-linejoin:miter;stroke-miterlimit:4;stroke-dasharray:none;stroke-opacity:1" />
    <path
       sodipodi:nodetypes="csacsc"
       inkscape:connector-curvature="0"
       id="path844"
       d="m 86.902331,135.14742 c 0,0 6.764948,-0.27068 20.827719,-6.19184 23.89343,-10.0604 39.89696,5.61711 59.94317,7.54529 8.36367,0.80448 25.15098,1.67674 25.15098,1.67674 0,0 -33.7844,29.03752 -72.93785,22.63588 -18.14848,-2.9673 -32.984019,-25.66607 -32.984019,-25.66607 z"
       style="fill:#8e93c9;fill-opacity:1;stroke:#2a3986;stroke-width:2;stroke-linecap:butt;stroke-linejoin:miter;stroke-miterlimit:4;stroke-dasharray:none;stroke-opacity:1" />
    <path
       style="fill:#eee40a;fill-opacity:1;stroke:#2a3986;stroke-width:2;stroke-linecap:butt;stroke-linejoin:miter;stroke-miterlimit:4;stroke-dasharray:none;stroke-opacity:1"
       d="m 39.678516,121.6856 c 0,0 49.044417,-14.25223 67.907644,-19.70161 18.86324,-5.449379 6.70694,18.02487 1.25755,46.11014 -5.44938,28.08526 -62.039082,-9.64121 -62.039082,-9.64121 z"
       id="path836"
       inkscape:connector-curvature="0" />
    <path
       style="fill:#8e93c9;fill-opacity:1;stroke:#2a3986;stroke-width:2;stroke-linecap:butt;stroke-linejoin:miter;stroke-opacity:1;stroke-miterlimit:4;stroke-dasharray:none"
       d="m 67.200727,139.66252 c 0,0 6.764948,-0.27068 20.827715,-6.19184 23.893438,-10.0604 39.896968,5.61711 59.943178,7.54529 8.36367,0.80448 25.15098,1.67674 25.15098,1.67674 0,0 -33.7844,29.03752 -72.93785,22.63588 -18.148479,-2.9673 -32.984023,-25.66607 -32.984023,-25.66607 z"
       id="path842"
       inkscape:connector-curvature="0"
       sodipodi:nodetypes="csacsc" />
    <path
       inkscape:connector-curvature="0"
       id="path834"
       d="m 19.282421,120.47601 c 0,0 49.044417,-14.25223 67.907655,-19.70161 18.863234,-5.449378 6.706929,18.02487 1.257549,46.11014 -5.44938,28.08526 -62.039092,-9.64121 -62.039092,-9.64121 z"
       style="fill:#eee40a;stroke:#2a3986;stroke-width:2;stroke-linecap:butt;stroke-linejoin:miter;stroke-opacity:1;stroke-miterlimit:4;stroke-dasharray:none;fill-opacity:1" />
    <path
       sodipodi:nodetypes="csscsc"
       inkscape:connector-curvature="0"
       id="path840"
       d="m 24.312617,141.01598 c 0,0 21.986976,0.89096 36.049743,-5.0302 23.893434,-10.0604 34.896394,4.70463 51.9787,8.80284 10.73476,2.57537 33.11546,0.41919 33.11546,0.41919 0,0 -33.7844,29.03752 -72.937851,22.63588 -18.14848,-2.9673 -48.206052,-26.82771 -48.206052,-26.82771 z"
       style="fill:#8e93c9;fill-opacity:1;stroke:#2a3986;stroke-width:2;stroke-linecap:butt;stroke-linejoin:miter;stroke-miterlimit:4;stroke-dasharray:none;stroke-opacity:1" />
  </g>
</svg>
